PathFileType	4	(X/Y/Z)	C:/Users/beibeiliu/ov580/test_trc/User2\sequence.37_training_dense_left.trc
DataRate	CameraRate	NumFrames	NumMarkers	Units	OrigDataRate	OrigDataStartFrame	OrigNumFrames
120	120	15	19	mm	120	126	500
Frame#	Time	ThumbCMC			ThumbMCP			ThumbIP			ThumbTip			IndexMCP			IndexPIP			IndexTip			MiddleMCP			MiddlePIP			MiddleTip			RingMCP			RingPIP			RingTip			PinkyMCP			PinkyPIP			PinkyTip			BackHand1			BackHand2			BackHand3	
		X0	Y0	Z0	X1	Y1	Z1	X2	Y2	Z2	X3	Y3	Z3	X4	Y4	Z4	X5	Y5	Z5	X6	Y6	Z6	X7	Y7	Z7	X8	Y8	Z8	X9	Y9	Z9	X10	Y10	Z10	X11	Y11	Z11	X12	Y12	Z12	X13	Y13	Z13	X14	Y14	Z14	X15	Y15	Z15	X16	Y16	Z16	X17	Y17	Z17	X18	Y18	Z18	
125	1.04167	-173.877	-5.04831	93.0761	-148.919	-5.29913	66.6632	-133.627	-11.2244	34.3961	-128.217	-25.8543	11.6835	-200.194	-14.0349	17.4933	-183.508	-17.1061	-11.1422	-150.581	-26.8741	-19.9031	-202.182	-36.7353	6.74516	-175.472	-43.2218	-16.4204	-137.326	-47.7041	-9.54138	-203.813	-62.353	15.3029	-179.043	-60.0303	-10.2112	-144.813	-61.2175	-3.67742	-199.504	-81.3647	34.4348	-186.711	-79.4373	2.69005	-158.97	-76.5795	-7.70726	-215.441	-61.4085	75.0197	-218.57	-58.5852	107.157	-213.18	-24.07	91.5288	
126	1.05	-170.742	-5.89456	93.8134	-148.695	-8.2758	68.4628	-132.324	-13.0522	31.9455	-127.376	-28.8192	11.6007	-196.64	-13.6452	12.9971	-179.066	-17.2981	-11.0396	-145.23	-30.0794	-17.8899	-201.415	-38.6836	12.1328	-175.64	-39.6736	-15.0212	-137.218	-46.3461	-8.95202	-200.645	-62.2424	11.4417	-177.859	-62.7872	-7.66995	-144.585	-61.1235	-1.83661	-200.226	-82.8612	34.2411	-188.094	-78.8614	5.36425	-157.06	-76.6645	-5.27095	-216.197	-59.2512	73.2566	-215.477	-58.4688	111.039	-213.716	-25.6194	89.2648	
127	1.05833	-170.827	-6.81672	94.4921	-144.387	-6.96659	67.2898	-132.198	-16.4851	35.6575	-126.492	-31.5792	8.3594	-195.351	-17.3678	14.0543	-178.025	-18.9583	-10.0368	-144.189	-31.1699	-18.202	-198.118	-35.6847	7.72886	-170.616	-42.8281	-14.5052	-133.118	-50.3973	-4.89654	-199.886	-60.9083	13.0003	-177.78	-65.2882	-7.18643	-140.433	-59.8593	0.866327	-199.929	-83.3313	33.6044	-186.436	-84.578	3.88519	-156.019	-76.9538	-5.37269	-214.545	-58.5876	78.1544	-218.177	-58.3552	106.62	-213.034	-26.9195	88.4687	
128	1.06667	-170.301	-8.05527	95.1994	-144.713	-8.46203	67.4723	-131.086	-16.9395	34.6247	-123.982	-30.8887	12.9591	-195.545	-18.5227	17.1935	-176.454	-22.3184	-10.897	-147.57	-27.5037	-17.6577	-197.223	-39.5336	7.6107	-169.889	-43.1689	-15.3755	-134.019	-53.0307	-3.63264	-199.509	-62.635	11.8349	-178.789	-65.3026	-7.53555	-140.493	-62.2782	1.3693	-198.767	-80.8366	35.8468	-185.277	-84.2528	3.2169	-154.025	-75.6326	-5.24666	-213.495	-60.5157	75.3747	-217.806	-59.9058	109.742	-212.086	-24.3855	92.3525	
129	1.075	-169.318	-7.73159	94.8846	-144.849	-10.0655	67.3295	-130.981	-17.5169	32.6461	-125.226	-31.2949	15.8796	-194.633	-15.1781	18.3805	-174.718	-21.7295	-11.9941	-147.673	-28.7649	-18.5933	-198.509	-42.1686	10.7039	-169.31	-44.7512	-14.2832	-133.537	-53.3085	-4.15551	-199.286	-63.2948	13.4808	-177.475	-66.7156	-8.0233	-142.147	-64.4837	0.712734	-199.994	-83.3004	34.9013	-185.954	-81.6937	3.96	-155.481	-76.2237	-6.77595	-214.013	-60.1096	76.6179	-217.3	-57.4781	109.235	-210.21	-23.16	89.9432	
130	1.08333	-169.617	-8.42565	93.031	-145.256	-8.55489	64.1122	-129.92	-16.9725	33.3989	-124.119	-30.2418	11.7208	-194.788	-14.4943	18.4594	-177.89	-23.0919	-11.4591	-146.158	-33.1724	-19.038	-198.785	-38.2749	9.93938	-172.849	-45.4037	-14.8073	-136.404	-52.5972	-6.09749	-202.21	-63.71	17.7728	-176.334	-62.7655	-8.51383	-141.313	-63.659	0.67363	-200.188	-80.2785	32.9928	-187.415	-81.0859	5.09644	-157.782	-79.1572	-6.01887	-215.89	-61.0027	73.3642	-215.45	-59.1693	108.555	-210.382	-23.8588	93.0074	
131	1.09167	-169.896	-9.64908	94.9027	-145.943	-9.41792	65.9694	-129.688	-14.4353	36.0077	-123.988	-30.1646	12.9921	-195.318	-16.4957	15.3974	-181.236	-21.6535	-10.3231	-151.534	-34.9821	-19.4848	-200.953	-39.3765	7.98862	-174.081	-46.0096	-15.8922	-136.068	-55.5091	-6.54351	-202.274	-63.318	15.563	-179.836	-67.7288	-9.28622	-146.262	-68.2056	-2.24692	-200.895	-78.5568	34.3115	-188.321	-84.2054	4.57644	-157.814	-82.411	-8.81143	-215.28	-62.1579	76.5129	-217.916	-56.341	108.576	-210.729	-25.118	92.9816	
132	1.1	-171.257	-8.05926	92.3687	-144.719	-6.49135	63.874	-130.891	-12.9647	33.0587	-123.247	-26.4288	13.2278	-197.242	-18.603	16.182	-182.572	-25.4913	-12.07	-153.826	-33.3698	-22.6035	-201.944	-39.6768	6.96082	-175.886	-48.3713	-16.6986	-136.681	-55.3126	-8.04845	-203.564	-59.5053	13.6912	-180.807	-67.3834	-9.59845	-147.717	-64.1994	-4.63431	-201.904	-78.7237	33.9486	-188.461	-82.8352	2.97924	-159.329	-81.8801	-7.58122	-214.031	-59.1212	73.5382	-217.366	-56.0769	111.718	-212.37	-22.193	87.0734	
133	1.10833	-171.848	-4.55451	90.3648	-146.829	-4.36467	66.1468	-132.234	-13.0552	34.6468	-124.699	-26.8591	8.55741	-200.64	-16.9577	16.5986	-186.399	-25.2749	-11.9881	-156.159	-33.3405	-25.4781	-204.888	-41.1588	8.57224	-179.111	-44.3266	-17.6396	-142.314	-55.3337	-11.3808	-207.058	-65.8365	17.5689	-186.093	-65.435	-9.02586	-148.551	-63.745	-4.78576	-203.175	-83.763	34.3691	-191.538	-86.9912	3.8328	-164.595	-80.7408	-7.31642	-217.077	-59.8327	78.1572	-218.621	-57.8272	110.238	-214.246	-25.3296	90.1367	
134	1.11667	-174.323	-6.01547	92.1181	-151.364	-7.28723	61.3949	-135.466	-12.9886	31.876	-126.441	-25.8453	10.3667	-204.751	-19.4679	15.5766	-188.375	-21.673	-16.7487	-163.274	-34.0597	-27.0113	-207.472	-40.3504	7.66833	-184.709	-47.719	-18.6329	-143.172	-49.6523	-12.0635	-208.089	-66.9032	16.0002	-186.649	-66.8121	-10.647	-149.221	-66.3573	-5.56153	-204.905	-85.2186	30.8741	-190.03	-83.855	1.70392	-162.873	-78.8005	-8.63462	-215.685	-62.4648	72.6637	-220.381	-57.1593	105.201	-216.921	-24.3274	86.7052	
135	1.125	-178.737	-4.41761	91.8396	-154.027	-3.13799	62.4682	-138.186	-10.6266	29.0584	-128.002	-22.1039	6.402	-208.286	-23.0878	10.1306	-193.993	-29.7865	-17.5348	-166.143	-37.2263	-30.4827	-209.93	-44.6271	7.10978	-186.766	-48.138	-19.4029	-143.726	-53.9824	-11.6014	-207.506	-65.2578	12.5037	-184.854	-71.6444	-11.9894	-151.018	-63.5768	-6.81911	-201.715	-84.8404	35.114	-188.625	-87.9408	1.25825	-162.165	-82.1354	-9.6655	-217.196	-62.6214	74.23	-218.993	-64.2663	104.512	-218.489	-26.8575	86.3509	
136	1.13333	-185.599	-7.92567	83.7428	-161.794	-2.83824	54.5986	-144.714	-6.12362	27.0086	-136.002	-22.6571	2.11156	-214.389	-28.7795	7.88004	-201.67	-36.0254	-19.0673	-174.195	-40.684	-32.8899	-213.119	-50.7611	4.82802	-187.138	-52.5966	-21.8644	-147.716	-48.1581	-14.2639	-207.518	-73.7422	14.6817	-189.119	-74.9076	-10.434	-150.972	-65.3375	-6.87563	-201.198	-90.134	30.0639	-186.466	-94.0531	2.62149	-157.228	-80.8998	-9.55772	-216.186	-65.4238	75.7331	-218.771	-66.3891	105.628	-222.141	-33.037	84.1742	
137	1.14167	-194.97	-8.65922	80.2951	-171.784	-0.852192	52.04	-156.185	-11.246	20.022	-146.06	-27.714	-0.00799061	-222.027	-36.8906	10.3149	-208.212	-40.0559	-22.5446	-179.452	-40.5992	-36.8382	-215.384	-58.5299	7.56978	-188.856	-58.4491	-23.1861	-150.802	-51.8687	-14.9352	-207.122	-82.4339	16.2885	-186.7	-82.8512	-10.1757	-153.303	-62.5656	-7.05398	-197.535	-93.799	32.0443	-182.087	-96.1225	2.5544	-160.376	-83.4006	-8.94218	-217.014	-71.7496	75.0787	-216.256	-68.3446	106.693	-227.963	-36.0446	82.1379	
138	1.15	-201.558	-9.30496	80.5695	-180.839	-4.11519	49.2402	-164.57	-12.1207	12.9859	-153.13	-29.5164	-3.22363	-227.274	-45.7337	7.20867	-211.921	-51.2379	-22.9887	-182.651	-44.9148	-38.4459	-216.36	-69.2684	3.90739	-189.575	-64.0487	-22.3653	-155.041	-50.3931	-16.2981	-207.431	-86.4848	17.1312	-187.289	-83.9223	-10.5778	-156.251	-67.4521	-7.65613	-196.154	-95.7397	31.6696	-180.167	-99.6685	2.88225	-160.954	-84.6513	-8.97764	-217.132	-79.9063	72.4596	-216.38	-69.9629	108.863	-231.728	-41.7289	80.0094	
139	1.15833	-207.555	-9.15529	75.5914	-186.888	-5.70176	43.7499	-170.702	-16.3848	13.698	-159.573	-32.3613	-0.242223	-231.106	-48.7643	5.64734	-215.268	-52.4186	-24.5711	-188.487	-49.9557	-36.4703	-216.298	-75.6155	3.14416	-194.21	-69.7842	-21.2266	-159.923	-50.3366	-18.2447	-205.656	-90.3777	14.8404	-183.872	-86.5414	-11.0443	-158.513	-62.3235	-7.95083	-193.576	-98.9288	37.7441	-181.076	-102.863	6.1614	-157.61	-84.7943	-8.28502	-215.886	-78.8097	77.0107	-217.806	-74.9146	104.579	-232.306	-47.3485	83.5795	
